# xmcd
#
# Track frame offsets: 
#        150
#        20031
#        48732
#        70175
#        97130
#        114325
#        138597
#        160715
#        186197
#        213567
#
# Disc length: 3067 seconds
#
# Revision: 0
# Processed by: cddbd v1.5.2PL0 Copyright (c) Steve Scherf et al.
# Submitted via: ExactAudioCopy v1.0b3
#
DISCID=940bf90a
DTITLE=Various Artist - Don Xuan
DYEAR=1997
DGENRE=
TTITLE0=Kha Tu, Tuan Tai, Phi Nhung, Hai Phong - Canh thiep dau Xuan
TTITLE1=My Huyen - Ngheo cung don Xuan
TTITLE2=Manh Dinh - Don Xuan nay nho Xuan xua
TTITLE3=Phuong Dung - Hanh phuc dau Xuan
TTITLE4=Quang Binh, Trang Thanh Lan - Tet nay co em
TTITLE5=Phi Nhung - Neu Xuan nay vang anh
TTITLE6=Thanh Tuyen - Em con nho mua Xuan
TTITLE7=Elvis Phuong, Thanh Lan - Tray hoi mua Xuan
TTITLE8=Kha Tu - Dam cuoi dau Xuan
TTITLE9=Nhat Yen, Phuong Hung - Don Xuan da
EXTD=
EXTT0=
EXTT1=
EXTT2=
EXTT3=
EXTT4=
EXTT5=
EXTT6=
EXTT7=
EXTT8=
EXTT9=
PLAYORDER=
